<?xml version="1.0" encoding="UTF-8" standalone="no"?>
<svg width="70px" height="15px" viewBox="0 0 70 15" version="1.1" xmlns="http://www.w3.org/2000/svg" xmlns:xlink="http://www.w3.org/1999/xlink" xmlns:sketch="http://www.bohemiancoding.com/sketch/ns">
    <title>logo</title>
    <description>Created with Sketch (http://www.bohemiancoding.com/sketch)</description>
    <defs></defs>
    <g id="Page-1" stroke="none" stroke-width="1" fill="none" fill-rule="evenodd" sketch:type="MSPage">
        <g id="Artboard-1" sketch:type="MSArtboardGroup" transform="translate(-239.000000, -244.000000)" fill="#000000">
            <path d="M243.883,258.228 C246.581,258.228 248.386,256.461 248.386,253.915 L248.386,253.858 C248.386,251.559 246.79,250.495 245.08,250.153 L248.196,246.885 L248.196,244.7 L240.197,244.7 L240.197,247.151 L244.814,247.151 L241.888,250.4 L242.211,252.148 L243.009,252.148 C244.719,252.148 245.669,252.813 245.669,253.953 L245.669,253.991 C245.669,255.055 244.89,255.72 243.826,255.72 C242.648,255.72 241.831,255.15 241.147,254.428 L239.494,256.366 C240.52,257.468 241.945,258.228 243.883,258.228 Z M250.59,258 L254.884,258 C258.741,258 261.23,255.321 261.23,251.426 L261.23,251.255 C261.23,247.36 258.741,244.7 254.884,244.7 L250.59,244.7 L250.59,258 Z M254.865,247.189 C256.955,247.189 258.38,248.671 258.38,251.312 L258.38,251.407 C258.38,254.048 256.955,255.511 254.865,255.511 L253.345,255.511 L253.345,247.189 L254.865,247.189 Z M263.396,258 L266.151,258 L266.151,253.63 L267.88,253.63 L270.331,258 L273.485,258 L270.654,253.06 C272.117,252.414 273.124,251.141 273.124,249.127 L273.124,249.051 C273.124,247.74 272.725,246.695 272.003,245.973 C271.167,245.137 269.932,244.7 268.393,244.7 L263.396,244.7 L263.396,258 Z M266.151,251.198 L266.151,247.189 L268.127,247.189 C269.533,247.189 270.35,247.854 270.35,249.184 L270.35,249.203 C270.35,250.4 269.59,251.198 268.184,251.198 L266.151,251.198 Z M280.838,258.228 C284.353,258.228 286.861,255.416 286.861,251.445 L286.861,251.217 C286.861,247.246 284.391,244.472 280.857,244.472 C277.342,244.472 274.834,247.265 274.834,251.255 L274.834,251.483 C274.834,255.454 277.304,258.228 280.838,258.228 Z M280.857,255.682 C279.014,255.682 277.665,254.029 277.665,251.407 L277.665,251.274 C277.665,248.652 278.976,247.018 280.838,247.018 C282.681,247.018 284.011,248.671 284.011,251.293 L284.011,251.426 C284.011,254.048 282.7,255.682 280.857,255.682 Z M289.046,258 L291.801,258 L291.801,253.953 L293.359,253.953 C296.152,253.896 298.337,252.357 298.337,249.298 L298.337,249.26 C298.337,246.429 296.456,244.7 293.473,244.7 L289.046,244.7 L289.046,258 Z M291.801,251.483 L291.801,247.189 L293.302,247.189 C294.765,247.189 295.563,247.949 295.563,249.336 L295.563,249.355 C295.563,250.59 294.765,251.483 293.34,251.483 L291.801,251.483 Z M304.094,258.171 C306.678,258.171 308.559,256.651 308.559,254.181 L308.559,254.143 C308.559,252.072 307.305,251.084 304.987,250.172 C302.916,249.317 302.46,248.956 302.46,248.196 L302.46,248.177 C302.46,247.493 303.049,247.018 303.999,247.018 C305.025,247.018 305.994,247.569 306.83,248.253 L308.369,246.163 C307.153,245.061 305.633,244.529 304.075,244.529 C301.51,244.529 299.724,246.106 299.724,248.424 L299.724,248.462 C299.724,250.742 301.187,251.635 303.543,252.547 C305.443,253.269 305.823,253.687 305.823,254.352 L305.823,254.371 C305.823,255.15 305.177,255.682 304.113,255.682 C302.783,255.682 301.7,254.96 300.807,254.181 L299.173,256.214 C300.636,257.582 302.403,258.171 304.094,258.171 Z" id="3DROPS" sketch:type="MSShapeGroup"></path>
        </g>
    </g>
</svg>